mtllib material.mtl
usemtl material_0
v -0.00334996 -0.19126790 0.26450000
v -0.00334996 -0.19126790 0.26450000
v -0.00334996 -0.19126790 0.26450000
v -0.00334996 -0.19126790 0.31010000
v -0.00334996 -0.19126790 0.31010000
v -0.00334996 -0.10526800 0.26450000
v -0.00334996 -0.10526800 0.26450000
v -0.00334996 -0.10526800 0.31010000
v -0.00334996 -0.10526800 0.31010000
v -0.00334996 -0.10526800 0.31010000
v -0.00290096 -0.19126790 0.26282500
v -0.00290096 -0.19126790 0.31177500
v -0.00290096 -0.10526800 0.26282500
v -0.00290096 -0.10526800 0.31177500
v -0.00167495 -0.19126790 0.26159900
v -0.00167495 -0.19126790 0.26159900
v -0.00167495 -0.19126790 0.26159900
v -0.00167495 -0.19126790 0.26159900
v -0.00167495 -0.19126790 0.31300100
v -0.00167495 -0.19126790 0.31300100
v -0.00167495 -0.19126790 0.31300100
v -0.00167495 -0.19126790 0.31300100
v -0.00167495 -0.10526800 0.26159900
v -0.00167495 -0.10526800 0.26159900
v -0.00167495 -0.10526800 0.26159900
v -0.00167495 -0.10526800 0.26159900
v -0.00167495 -0.10526800 0.31300100
v -0.00167495 -0.10526800 0.31300100
v -0.00167495 -0.10526800 0.31300100
v -0.00167495 -0.10526800 0.31300100
v 0.00000000 -0.19126790 0.26115000
v 0.00000000 -0.19126790 0.26115000
v 0.00000000 -0.19126790 0.26115000
v 0.00000000 -0.19126790 0.31345000
v 0.00000000 -0.19126790 0.31345000
v 0.00000000 -0.19126790 0.31345000
v 0.00000000 -0.10526800 0.26115000
v 0.00000000 -0.10526800 0.26115000
v 0.00000000 -0.10526800 0.26115000
v 0.00000000 -0.10526800 0.31345000
v 0.00000000 -0.10526800 0.31345000
v 0.00000000 -0.10526800 0.31345000
v 0.00167495 -0.19126790 0.26159900
v 0.00167495 -0.19126790 0.26159900
v 0.00167495 -0.19126790 0.26159900
v 0.00167495 -0.19126790 0.26159900
v 0.00167495 -0.19126790 0.31300100
v 0.00167495 -0.19126790 0.31300100
v 0.00167495 -0.19126790 0.31300100
v 0.00167495 -0.19126790 0.31300100
v 0.00167495 -0.10526800 0.26159900
v 0.00167495 -0.10526800 0.26159900
v 0.00167495 -0.10526800 0.26159900
v 0.00167495 -0.10526800 0.26159900
v 0.00167495 -0.10526800 0.31300100
v 0.00167495 -0.10526800 0.31300100
v 0.00167495 -0.10526800 0.31300100
v 0.00167495 -0.10526800 0.31300100
v 0.00290096 -0.19126790 0.26282500
v 0.00290096 -0.19126790 0.31177500
v 0.00290096 -0.10526800 0.26282500
v 0.00290096 -0.10526800 0.31177500
v 0.00334996 -0.19126790 0.26450000
v 0.00334996 -0.19126790 0.26450000
v 0.00334996 -0.19126790 0.31010000
v 0.00334996 -0.19126790 0.31010000
v 0.00334996 -0.19126790 0.31010000
v 0.00334996 -0.10526800 0.26450000
v 0.00334996 -0.10526800 0.26450000
v 0.00334996 -0.10526800 0.26450000
v 0.00334996 -0.10526800 0.31010000
v 0.00334996 -0.10526800 0.31010000
vn 0.00000000 -1.00000000 0.00000000
vn 0.00000000 -1.00000000 0.00000000
vn 0.00000000 -1.00000000 0.00001936
vn 0.00000000 -1.00000000 -0.00001936
vn 0.00000000 -1.00000000 0.00000000
vn -0.00000028 1.00000000 0.00000000
vn 0.00000000 1.00000000 0.00001936
vn -0.00000028 1.00000000 0.00000000
vn 0.00000025 1.00000000 -0.00000034
vn 0.00000000 1.00000000 -0.00001936
vn 0.00000000 -1.00000000 0.00001936
vn 0.00000000 -1.00000000 -0.00001936
vn 0.00000000 1.00000000 0.00001936
vn 0.00000000 1.00000000 -0.00001936
vn 0.00000000 -1.00000000 0.00001936
vn 0.00000000 -1.00000000 0.00000000
vn 0.00000000 -1.00000000 0.00000000
vn 0.00000000 -1.00000000 0.00000000
vn 0.00000000 -1.00000000 0.00000000
vn 0.00000000 -1.00000000 0.00000000
vn 0.00000000 -1.00000000 -0.00001936
vn 0.00000000 -1.00000000 0.00000000
vn 0.00000025 1.00000000 -0.00000034
vn 0.00000000 1.00000000 0.00000000
vn -0.00000028 1.00000000 0.00000000
vn 0.00000000 1.00000000 0.00001936
vn 0.00000000 1.00000000 -0.00001936
vn 0.00000025 1.00000000 -0.00000034
vn 0.00000000 1.00000000 -0.00000033
vn 0.00000000 1.00000000 0.00000000
vn 0.00000000 -1.00000000 0.00000000
vn 0.00000000 -1.00000000 0.00000000
vn 0.00000000 -1.00000000 0.00000000
vn 0.00000000 -1.00000000 0.00000000
vn 0.00000000 -1.00000000 0.00000000
vn 0.00000000 -1.00000000 0.00000000
vn 0.00000000 1.00000000 -0.00000033
vn 0.00000000 1.00000000 0.00000000
vn 0.00000000 1.00000000 0.00000000
vn 0.00000000 1.00000000 0.00000000
vn 0.00000000 1.00000000 -0.00000033
vn 0.00000000 1.00000000 -0.00000034
vn 0.00000000 -1.00000000 0.00000000
vn 0.00000000 -1.00000000 0.00003873
vn 0.00000000 -1.00000000 0.00000000
vn 0.00000000 -1.00000000 0.00000000
vn 0.00000000 -1.00000000 0.00000000
vn 0.00000000 -1.00000000 0.00000000
vn 0.00000000 -1.00000000 0.00000000
vn 0.00000000 -1.00000000 -0.00001936
vn 0.00000000 1.00000000 0.00000968
vn 0.00000000 1.00000000 -0.00000034
vn 0.00000000 1.00000000 0.00000000
vn 0.00000025 1.00000000 0.00000000
vn 0.00000000 1.00000000 -0.00001936
vn -0.00000028 1.00000000 -0.00000038
vn 0.00000000 1.00000000 -0.00000034
vn 0.00000025 1.00000000 0.00000000
vn 0.00000000 -1.00000000 0.00003873
vn 0.00000000 -1.00000000 -0.00001936
vn 0.00000000 1.00000000 0.00000968
vn 0.00000000 1.00000000 -0.00001936
vn 0.00000000 -1.00000000 0.00000000
vn 0.00000000 -1.00000000 0.00003873
vn 0.00000000 -1.00000000 0.00000000
vn 0.00000000 -1.00000000 0.00000000
vn 0.00000000 -1.00000000 -0.00001936
vn -0.00000028 1.00000000 -0.00000038
vn 0.00000000 1.00000000 0.00000968
vn 0.00000025 1.00000000 0.00000000
vn 0.00000000 1.00000000 -0.00001936
vn -0.00000028 1.00000000 -0.00000038
vt -2.28000000 0.33500000
vt -2.28000000 0.33500000
vt -2.28000000 0.33500000
vt 2.28000000 0.33500000
vt 2.28000000 0.33500000
vt 2.28000000 0.33500000
vt 2.28000000 0.33500000
vt -2.28000000 0.33500000
vt -2.28000000 0.33500000
vt -2.28000000 0.33500000
vt -2.44750000 0.29011900
vt 2.44750000 0.29011900
vt 2.44750000 0.29011900
vt -2.44750000 0.29011900
vt -2.57011900 0.16750000
vt -2.57011900 0.16750000
vt -2.57011900 0.16750000
vt -2.57011900 0.16750000
vt 2.57011900 0.16750000
vt 2.57011900 0.16750000
vt 2.57011900 0.16750000
vt 2.57011900 0.16750000
vt 2.57011900 0.16750000
vt 2.57011900 0.16750000
vt 2.57011900 0.16750000
vt 2.57011900 0.16750000
vt -2.57011900 0.16750000
vt -2.57011900 0.16750000
vt -2.57011900 0.16750000
vt -2.57011900 0.16750000
vt -2.61500000 0.00000000
vt -2.61500000 0.00000000
vt -2.61500000 0.00000000
vt 2.61500000 0.00000000
vt 2.61500000 0.00000000
vt 2.61500000 0.00000000
vt 2.61500000 0.00000000
vt 2.61500000 0.00000000
vt 2.61500000 0.00000000
vt -2.61500000 0.00000000
vt -2.61500000 0.00000000
vt -2.61500000 0.00000000
vt -2.57011900 -0.16750000
vt -2.57011900 -0.16750000
vt -2.57011900 -0.16750000
vt -2.57011900 -0.16750000
vt 2.57011900 -0.16750000
vt 2.57011900 -0.16750000
vt 2.57011900 -0.16750000
vt 2.57011900 -0.16750000
vt 2.57011900 -0.16750000
vt 2.57011900 -0.16750000
vt 2.57011900 -0.16750000
vt 2.57011900 -0.16750000
vt -2.57011900 -0.16750000
vt -2.57011900 -0.16750000
vt -2.57011900 -0.16750000
vt -2.57011900 -0.16750000
vt -2.44750000 -0.29011900
vt 2.44750000 -0.29011900
vt 2.44750000 -0.29011900
vt -2.44750000 -0.29011900
vt -2.28000000 -0.33500000
vt -2.28000000 -0.33500000
vt 2.28000000 -0.33500000
vt 2.28000000 -0.33500000
vt 2.28000000 -0.33500000
vt 2.28000000 -0.33500000
vt 2.28000000 -0.33500000
vt 2.28000000 -0.33500000
vt -2.28000000 -0.33500000
vt -2.28000000 -0.33500000
f 59/59/59 64/64/64 44/44/44
f 43/43/43 63/63/63 65/65/65
f 45/45/45 66/66/66 47/47/47
f 50/50/50 67/67/67 60/60/60
f 46/46/46 48/48/48 33/33/33
f 32/32/32 49/49/49 36/36/36
f 31/31/31 35/35/35 18/18/18
f 16/16/16 34/34/34 22/22/22
f 17/17/17 19/19/19 1/1/1
f 2/2/2 20/20/20 5/5/5
f 4/4/4 21/21/21 12/12/12
f 3/3/3 11/11/11 15/15/15
f 62/62/62 71/71/71 55/55/55
f 56/56/56 72/72/72 68/68/68
f 58/58/58 70/70/70 54/54/54
f 51/51/51 69/69/69 61/61/61
f 57/57/57 52/52/52 42/42/42
f 40/40/40 53/53/53 39/39/39
f 41/41/41 37/37/37 29/29/29
f 30/30/30 38/38/38 24/24/24
f 28/28/28 23/23/23 9/9/9
f 8/8/8 25/25/25 6/6/6
f 7/7/7 26/26/26 13/13/13
f 10/10/10 14/14/14 27/27/27

